<?xml version='1.0' encoding='utf-8'?>
<svg xmlns="http://www.w3.org/2000/svg" xmlns:xlink="http://www.w3.org/1999/xlink" id="chart-cd4d5085-1905-4bdd-b691-54c77745dfd5" class="pygal-chart" viewBox="0 0 800 600"><!--Generated with pygal 2.4.0 (lxml) ©Kozea 2012-2016 on 2019-11-27--><!--http://pygal.org--><!--http://github.com/Kozea/pygal--><defs><style type="text/css">#chart-cd4d5085-1905-4bdd-b691-54c77745dfd5{-webkit-user-select:none;-webkit-font-smoothing:antialiased;font-family:Consolas,"Liberation Mono",Menlo,Courier,monospace}#chart-cd4d5085-1905-4bdd-b691-54c77745dfd5 .title{font-family:Consolas,"Liberation Mono",Menlo,Courier,monospace;font-size:16px}#chart-cd4d5085-1905-4bdd-b691-54c77745dfd5 .legends .legend text{font-family:Consolas,"Liberation Mono",Menlo,Courier,monospace;font-size:14px}#chart-cd4d5085-1905-4bdd-b691-54c77745dfd5 .axis text{font-family:Consolas,"Liberation Mono",Menlo,Courier,monospace;font-size:10px}#chart-cd4d5085-1905-4bdd-b691-54c77745dfd5 .axis text.major{font-family:Consolas,"Liberation Mono",Menlo,Courier,monospace;font-size:10px}#chart-cd4d5085-1905-4bdd-b691-54c77745dfd5 .text-overlay text.value{font-family:Consolas,"Liberation Mono",Menlo,Courier,monospace;font-size:16px}#chart-cd4d5085-1905-4bdd-b691-54c77745dfd5 .text-overlay text.label{font-family:Consolas,"Liberation Mono",Menlo,Courier,monospace;font-size:10px}#chart-cd4d5085-1905-4bdd-b691-54c77745dfd5 .tooltip{font-family:Consolas,"Liberation Mono",Menlo,Courier,monospace;font-size:14px}#chart-cd4d5085-1905-4bdd-b691-54c77745dfd5 text.no_data{font-family:Consolas,"Liberation Mono",Menlo,Courier,monospace;font-size:64px}
#chart-cd4d5085-1905-4bdd-b691-54c77745dfd5{background-color:rgba(249,249,249,1)}#chart-cd4d5085-1905-4bdd-b691-54c77745dfd5 path,#chart-cd4d5085-1905-4bdd-b691-54c77745dfd5 line,#chart-cd4d5085-1905-4bdd-b691-54c77745dfd5 rect,#chart-cd4d5085-1905-4bdd-b691-54c77745dfd5 circle{-webkit-transition:150ms;-moz-transition:150ms;transition:150ms}#chart-cd4d5085-1905-4bdd-b691-54c77745dfd5 .graph &gt; .background{fill:rgba(249,249,249,1)}#chart-cd4d5085-1905-4bdd-b691-54c77745dfd5 .plot &gt; .background{fill:rgba(255,255,255,1)}#chart-cd4d5085-1905-4bdd-b691-54c77745dfd5 .graph{fill:rgba(0,0,0,.87)}#chart-cd4d5085-1905-4bdd-b691-54c77745dfd5 text.no_data{fill:rgba(0,0,0,1)}#chart-cd4d5085-1905-4bdd-b691-54c77745dfd5 .title{fill:rgba(0,0,0,1)}#chart-cd4d5085-1905-4bdd-b691-54c77745dfd5 .legends .legend text{fill:rgba(0,0,0,.87)}#chart-cd4d5085-1905-4bdd-b691-54c77745dfd5 .legends .legend:hover text{fill:rgba(0,0,0,1)}#chart-cd4d5085-1905-4bdd-b691-54c77745dfd5 .axis .line{stroke:rgba(0,0,0,1)}#chart-cd4d5085-1905-4bdd-b691-54c77745dfd5 .axis .guide.line{stroke:rgba(0,0,0,.54)}#chart-cd4d5085-1905-4bdd-b691-54c77745dfd5 .axis .major.line{stroke:rgba(0,0,0,.87)}#chart-cd4d5085-1905-4bdd-b691-54c77745dfd5 .axis text.major{fill:rgba(0,0,0,1)}#chart-cd4d5085-1905-4bdd-b691-54c77745dfd5 .axis.y .guides:hover .guide.line,#chart-cd4d5085-1905-4bdd-b691-54c77745dfd5 .line-graph .axis.x .guides:hover .guide.line,#chart-cd4d5085-1905-4bdd-b691-54c77745dfd5 .stackedline-graph .axis.x .guides:hover .guide.line,#chart-cd4d5085-1905-4bdd-b691-54c77745dfd5 .xy-graph .axis.x .guides:hover .guide.line{stroke:rgba(0,0,0,1)}#chart-cd4d5085-1905-4bdd-b691-54c77745dfd5 .axis .guides:hover text{fill:rgba(0,0,0,1)}#chart-cd4d5085-1905-4bdd-b691-54c77745dfd5 .reactive{fill-opacity:.7;stroke-opacity:.8}#chart-cd4d5085-1905-4bdd-b691-54c77745dfd5 .ci{stroke:rgba(0,0,0,.87)}#chart-cd4d5085-1905-4bdd-b691-54c77745dfd5 .reactive.active,#chart-cd4d5085-1905-4bdd-b691-54c77745dfd5 .active .reactive{fill-opacity:.8;stroke-opacity:.9;stroke-width:4}#chart-cd4d5085-1905-4bdd-b691-54c77745dfd5 .ci .reactive.active{stroke-width:1.5}#chart-cd4d5085-1905-4bdd-b691-54c77745dfd5 .series text{fill:rgba(0,0,0,1)}#chart-cd4d5085-1905-4bdd-b691-54c77745dfd5 .tooltip rect{fill:rgba(255,255,255,1);stroke:rgba(0,0,0,1);-webkit-transition:opacity 150ms;-moz-transition:opacity 150ms;transition:opacity 150ms}#chart-cd4d5085-1905-4bdd-b691-54c77745dfd5 .tooltip .label{fill:rgba(0,0,0,.87)}#chart-cd4d5085-1905-4bdd-b691-54c77745dfd5 .tooltip .label{fill:rgba(0,0,0,.87)}#chart-cd4d5085-1905-4bdd-b691-54c77745dfd5 .tooltip .legend{font-size:.8em;fill:rgba(0,0,0,.54)}#chart-cd4d5085-1905-4bdd-b691-54c77745dfd5 .tooltip .x_label{font-size:.6em;fill:rgba(0,0,0,1)}#chart-cd4d5085-1905-4bdd-b691-54c77745dfd5 .tooltip .xlink{font-size:.5em;text-decoration:underline}#chart-cd4d5085-1905-4bdd-b691-54c77745dfd5 .tooltip .value{font-size:1.5em}#chart-cd4d5085-1905-4bdd-b691-54c77745dfd5 .bound{font-size:.5em}#chart-cd4d5085-1905-4bdd-b691-54c77745dfd5 .max-value{font-size:.75em;fill:rgba(0,0,0,.54)}#chart-cd4d5085-1905-4bdd-b691-54c77745dfd5 .map-element{fill:rgba(255,255,255,1);stroke:rgba(0,0,0,.54) !important}#chart-cd4d5085-1905-4bdd-b691-54c77745dfd5 .map-element .reactive{fill-opacity:inherit;stroke-opacity:inherit}#chart-cd4d5085-1905-4bdd-b691-54c77745dfd5 .color-0,#chart-cd4d5085-1905-4bdd-b691-54c77745dfd5 .color-0 a:visited{stroke:#F44336;fill:#F44336}#chart-cd4d5085-1905-4bdd-b691-54c77745dfd5 .text-overlay .color-0 text{fill:black}
#chart-cd4d5085-1905-4bdd-b691-54c77745dfd5 text.no_data{text-anchor:middle}#chart-cd4d5085-1905-4bdd-b691-54c77745dfd5 .guide.line{fill:none}#chart-cd4d5085-1905-4bdd-b691-54c77745dfd5 .centered{text-anchor:middle}#chart-cd4d5085-1905-4bdd-b691-54c77745dfd5 .title{text-anchor:middle}#chart-cd4d5085-1905-4bdd-b691-54c77745dfd5 .legends .legend text{fill-opacity:1}#chart-cd4d5085-1905-4bdd-b691-54c77745dfd5 .axis.x text{text-anchor:middle}#chart-cd4d5085-1905-4bdd-b691-54c77745dfd5 .axis.x:not(.web) text[transform]{text-anchor:start}#chart-cd4d5085-1905-4bdd-b691-54c77745dfd5 .axis.x:not(.web) text[transform].backwards{text-anchor:end}#chart-cd4d5085-1905-4bdd-b691-54c77745dfd5 .axis.y text{text-anchor:end}#chart-cd4d5085-1905-4bdd-b691-54c77745dfd5 .axis.y text[transform].backwards{text-anchor:start}#chart-cd4d5085-1905-4bdd-b691-54c77745dfd5 .axis.y2 text{text-anchor:start}#chart-cd4d5085-1905-4bdd-b691-54c77745dfd5 .axis.y2 text[transform].backwards{text-anchor:end}#chart-cd4d5085-1905-4bdd-b691-54c77745dfd5 .axis .guide.line{stroke-dasharray:4,4}#chart-cd4d5085-1905-4bdd-b691-54c77745dfd5 .axis .major.guide.line{stroke-dasharray:6,6}#chart-cd4d5085-1905-4bdd-b691-54c77745dfd5 .horizontal .axis.y .guide.line,#chart-cd4d5085-1905-4bdd-b691-54c77745dfd5 .horizontal .axis.y2 .guide.line,#chart-cd4d5085-1905-4bdd-b691-54c77745dfd5 .vertical .axis.x .guide.line{opacity:0}#chart-cd4d5085-1905-4bdd-b691-54c77745dfd5 .horizontal .axis.always_show .guide.line,#chart-cd4d5085-1905-4bdd-b691-54c77745dfd5 .vertical .axis.always_show .guide.line{opacity:1 !important}#chart-cd4d5085-1905-4bdd-b691-54c77745dfd5 .axis.y .guides:hover .guide.line,#chart-cd4d5085-1905-4bdd-b691-54c77745dfd5 .axis.y2 .guides:hover .guide.line,#chart-cd4d5085-1905-4bdd-b691-54c77745dfd5 .axis.x .guides:hover .guide.line{opacity:1}#chart-cd4d5085-1905-4bdd-b691-54c77745dfd5 .axis .guides:hover text{opacity:1}#chart-cd4d5085-1905-4bdd-b691-54c77745dfd5 .nofill{fill:none}#chart-cd4d5085-1905-4bdd-b691-54c77745dfd5 .subtle-fill{fill-opacity:.2}#chart-cd4d5085-1905-4bdd-b691-54c77745dfd5 .dot{stroke-width:1px;fill-opacity:1}#chart-cd4d5085-1905-4bdd-b691-54c77745dfd5 .dot.active{stroke-width:5px}#chart-cd4d5085-1905-4bdd-b691-54c77745dfd5 .dot.negative{fill:transparent}#chart-cd4d5085-1905-4bdd-b691-54c77745dfd5 text,#chart-cd4d5085-1905-4bdd-b691-54c77745dfd5 tspan{stroke:none !important}#chart-cd4d5085-1905-4bdd-b691-54c77745dfd5 .series text.active{opacity:1}#chart-cd4d5085-1905-4bdd-b691-54c77745dfd5 .tooltip rect{fill-opacity:.95;stroke-width:.5}#chart-cd4d5085-1905-4bdd-b691-54c77745dfd5 .tooltip text{fill-opacity:1}#chart-cd4d5085-1905-4bdd-b691-54c77745dfd5 .showable{visibility:hidden}#chart-cd4d5085-1905-4bdd-b691-54c77745dfd5 .showable.shown{visibility:visible}#chart-cd4d5085-1905-4bdd-b691-54c77745dfd5 .gauge-background{fill:rgba(229,229,229,1);stroke:none}#chart-cd4d5085-1905-4bdd-b691-54c77745dfd5 .bg-lines{stroke:rgba(249,249,249,1);stroke-width:2px}</style><script type="text/javascript">window.pygal = window.pygal || {};window.pygal.config = window.pygal.config || {};window.pygal.config['cd4d5085-1905-4bdd-b691-54c77745dfd5'] = {"allow_interruptions": false, "box_mode": "extremes", "classes": ["pygal-chart"], "css": ["file://style.css", "file://graph.css"], "defs": [], "disable_xml_declaration": false, "dots_size": 2.5, "dynamic_print_values": false, "explicit_size": false, "fill": false, "force_uri_protocol": "https", "formatter": null, "half_pie": false, "height": 600, "include_x_axis": false, "inner_radius": 0, "interpolate": "cubic", "interpolation_parameters": {}, "interpolation_precision": 250, "inverse_y_axis": false, "js": ["//kozea.github.io/pygal.js/2.0.x/pygal-tooltips.min.js"], "legend_at_bottom": false, "legend_at_bottom_columns": null, "legend_box_size": 12, "logarithmic": false, "margin": 20, "margin_bottom": null, "margin_left": null, "margin_right": null, "margin_top": null, "max_scale": 16, "min_scale": 4, "missing_value_fill_truncation": "x", "no_data_text": "No data", "no_prefix": false, "order_min": null, "pretty_print": false, "print_labels": true, "print_values": false, "print_values_position": "center", "print_zeroes": true, "range": null, "rounded_bars": null, "secondary_range": null, "show_dots": true, "show_legend": true, "show_minor_x_labels": true, "show_minor_y_labels": true, "show_only_major_dots": false, "show_x_guides": false, "show_x_labels": true, "show_y_guides": true, "show_y_labels": true, "spacing": 10, "stack_from_top": false, "strict": false, "stroke": true, "stroke_style": null, "style": {"background": "rgba(249, 249, 249, 1)", "ci_colors": [], "colors": ["#F44336", "#3F51B5", "#009688", "#FFC107", "#FF5722", "#9C27B0", "#03A9F4", "#8BC34A", "#FF9800", "#E91E63", "#2196F3", "#4CAF50", "#FFEB3B", "#673AB7", "#00BCD4", "#CDDC39", "#9E9E9E", "#607D8B"], "font_family": "Consolas, \"Liberation Mono\", Menlo, Courier, monospace", "foreground": "rgba(0, 0, 0, .87)", "foreground_strong": "rgba(0, 0, 0, 1)", "foreground_subtle": "rgba(0, 0, 0, .54)", "guide_stroke_dasharray": "4,4", "label_font_family": "Consolas, \"Liberation Mono\", Menlo, Courier, monospace", "label_font_size": 10, "legend_font_family": "Consolas, \"Liberation Mono\", Menlo, Courier, monospace", "legend_font_size": 14, "major_guide_stroke_dasharray": "6,6", "major_label_font_family": "Consolas, \"Liberation Mono\", Menlo, Courier, monospace", "major_label_font_size": 10, "no_data_font_family": "Consolas, \"Liberation Mono\", Menlo, Courier, monospace", "no_data_font_size": 64, "opacity": ".7", "opacity_hover": ".8", "plot_background": "rgba(255, 255, 255, 1)", "stroke_opacity": ".8", "stroke_opacity_hover": ".9", "title_font_family": "Consolas, \"Liberation Mono\", Menlo, Courier, monospace", "title_font_size": 16, "tooltip_font_family": "Consolas, \"Liberation Mono\", Menlo, Courier, monospace", "tooltip_font_size": 14, "transition": "150ms", "value_background": "rgba(229, 229, 229, 1)", "value_colors": [], "value_font_family": "Consolas, \"Liberation Mono\", Menlo, Courier, monospace", "value_font_size": 16, "value_label_font_family": "Consolas, \"Liberation Mono\", Menlo, Courier, monospace", "value_label_font_size": 10}, "title": "tagMac: 0x280079", "tooltip_border_radius": 0, "tooltip_fancy_mode": true, "truncate_label": null, "truncate_legend": null, "width": 800, "x_label_rotation": 0, "x_labels": null, "x_labels_major": null, "x_labels_major_count": null, "x_labels_major_every": null, "x_title": null, "xrange": null, "y_label_rotation": 0, "y_labels": null, "y_labels_major": null, "y_labels_major_count": null, "y_labels_major_every": null, "y_title": null, "zero": 0, "legends": ["3c0c5940"]}</script><script type="text/javascript" xlink:href="https://kozea.github.io/pygal.js/2.0.x/pygal-tooltips.min.js"/></defs><title>tagMac: 0x280079</title><g class="graph line-graph vertical"><rect x="0" y="0" width="800" height="600" class="background"/><g transform="translate(137, 46)" class="plot"><rect x="0" y="0" width="642.8" height="534" class="background"/><g class="axis y always_show"><path d="M0.000000 534.000000 h642.800000" class="line"/><g class="guides"><path d="M0.000000 523.730769 h642.800000" class="major guide line"/><text x="-5" y="527.2307692307694" class="major">-75</text><title>-75</title></g><g class="guides"><path d="M0.000000 395.365385 h642.800000" class="guide line"/><text x="-5" y="398.86538461538476" class="">-74</text><title>-74</title></g><g class="guides"><path d="M0.000000 267.000000 h642.800000" class="guide line"/><text x="-5" y="270.5" class="">-73</text><title>-73</title></g><g class="guides"><path d="M0.000000 138.634615 h642.800000" class="guide line"/><text x="-5" y="142.13461538461524" class="">-72</text><title>-72</title></g><g class="guides"><path d="M0.000000 10.269231 h642.800000" class="guide line"/><text x="-5" y="13.769230769230603" class="">-71</text><title>-71</title></g></g><g class="series serie-0 color-0"><path d="M12.361538 523.730769 L12.856000 523.730769 13.350462 523.730769 13.844923 523.730769 14.339385 523.730769 14.833846 523.730769 15.328308 523.730769 15.822769 523.730769 16.317231 523.730769 16.811692 523.730769 17.306154 523.730769 17.800615 523.730769 18.295077 523.730769 18.789538 523.730769 19.284000 523.730769 19.778462 523.730769 20.272923 523.730769 20.767385 523.730769 21.261846 523.730769 21.756308 523.730769 22.250769 523.730769 22.745231 523.730769 23.239692 523.730769 23.734154 523.730769 24.228615 523.730769 24.723077 523.730769 25.217538 523.730769 25.712000 523.730769 26.206462 523.730769 26.700923 523.730769 27.195385 523.730769 27.689846 523.730769 28.184308 523.730769 28.678769 523.730769 29.173231 523.730769 29.667692 523.730769 30.162154 523.730769 30.656615 523.730769 31.151077 523.730769 31.645538 523.730769 32.140000 523.730769 32.634462 523.730769 33.128923 523.730769 33.623385 523.730769 34.117846 523.730769 34.612308 523.730769 35.106769 523.730769 35.601231 523.730769 36.095692 523.730769 36.590154 523.730769 37.084615 523.730769 37.579077 523.730769 38.073538 523.730769 38.568000 523.730769 39.062462 523.730769 39.556923 523.730769 40.051385 523.730769 40.545846 523.730769 41.040308 523.730769 41.534769 523.730769 42.029231 523.730769 42.523692 523.730769 43.018154 523.730769 43.512615 523.730769 44.007077 523.730769 44.501538 523.730769 44.996000 523.730769 45.490462 523.730769 45.984923 523.730769 46.479385 523.730769 46.973846 523.730769 47.468308 523.730769 47.962769 523.730769 48.457231 523.730769 48.951692 523.730769 49.446154 523.730769 49.940615 523.730769 50.435077 523.730769 50.929538 523.730769 51.424000 523.730769 51.918462 523.730769 52.412923 523.730769 52.907385 523.730769 53.401846 523.730769 53.896308 523.730769 54.390769 523.730769 54.885231 523.730769 55.379692 523.730769 55.874154 523.730769 56.368615 523.730769 56.863077 523.730769 57.357538 523.730769 57.852000 523.730769 58.346462 523.730769 58.840923 523.730769 59.335385 523.730769 59.829846 523.730769 60.324308 523.730769 60.818769 523.730769 61.313231 523.730769 61.807692 523.730769 62.302154 523.730769 62.796615 523.730769 63.291077 523.730769 63.785538 523.730769 64.280000 523.730769 64.774462 523.730769 65.268923 523.730769 65.763385 523.730769 66.257846 523.730769 66.752308 523.730769 67.246769 523.730769 67.741231 523.730769 68.235692 523.730769 68.730154 523.730769 69.224615 523.730769 69.719077 523.730769 70.213538 523.730769 70.708000 523.730769 71.202462 523.730769 71.696923 523.730769 72.191385 523.730769 72.685846 523.730769 73.180308 523.730769 73.674769 523.730769 74.169231 523.730769 74.663692 523.730769 75.158154 523.730769 75.652615 523.730769 76.147077 523.730769 76.641538 523.730769 77.136000 523.730769 77.630462 523.730769 78.124923 523.730769 78.619385 523.730769 79.113846 523.730769 79.608308 523.730769 80.102769 523.730769 80.597231 523.730769 81.091692 523.730769 81.586154 523.730769 82.080615 523.730769 82.575077 523.730769 83.069538 523.730769 83.564000 523.730769 84.058462 523.730769 84.552923 523.730769 85.047385 523.730769 85.541846 523.730769 86.036308 523.730769 86.530769 523.730769 87.025231 523.730769 87.519692 523.730769 88.014154 523.730769 88.508615 523.730769 89.003077 523.730769 89.497538 523.730769 89.992000 523.730769 90.486462 523.730769 90.980923 523.730769 91.475385 523.730769 91.969846 523.730769 92.464308 523.730769 92.958769 523.730769 93.453231 523.730769 93.947692 523.730769 94.442154 523.730769 94.936615 523.730769 95.431077 523.730769 95.925538 523.730769 96.420000 523.730769 96.914462 523.730769 97.408923 523.730769 97.903385 523.730769 98.397846 523.730769 98.892308 523.730769 99.386769 523.730769 99.881231 523.730769 100.375692 523.730769 100.870154 523.730769 101.364615 523.730769 101.859077 523.730769 102.353538 523.730769 102.848000 523.730769 103.342462 523.730769 103.836923 523.730769 104.331385 523.730769 104.825846 523.730769 105.320308 523.730769 105.814769 523.730769 106.309231 523.730769 106.803692 523.730769 107.298154 523.730769 107.792615 523.730769 108.287077 523.730769 108.781538 523.730769 109.276000 523.730769 109.770462 523.730769 110.264923 523.730769 110.759385 523.730769 111.253846 523.730769 111.748308 523.730769 112.242769 523.730769 112.737231 523.730769 113.231692 523.730769 113.726154 523.730769 114.220615 523.730769 114.715077 523.730769 115.209538 523.730769 115.704000 523.730769 116.198462 523.730769 116.692923 523.730769 117.187385 523.730769 117.681846 523.730769 118.176308 523.730769 118.670769 523.730769 119.165231 523.730769 119.659692 523.730769 120.154154 523.730769 120.648615 523.730769 121.143077 523.730769 121.637538 523.730769 122.132000 523.730769 122.626462 523.730769 123.120923 523.730769 123.615385 523.730769 124.109846 523.730769 124.604308 523.730769 125.098769 523.730769 125.593231 523.730769 126.087692 523.730769 126.582154 523.730769 127.076615 523.730769 127.571077 523.730769 128.065538 523.730769 128.560000 523.730769 129.054462 523.730769 129.548923 523.730769 130.043385 523.730769 130.537846 523.730769 131.032308 523.730769 131.526769 523.730769 132.021231 523.730769 132.515692 523.730769 133.010154 523.730769 133.504615 523.730769 133.999077 523.730769 134.493538 523.730769 134.988000 523.730769 135.482462 523.730769 135.976923 523.730769 136.471385 523.730769 136.965846 523.730769 137.460308 523.730769 137.954769 523.730769 138.449231 523.730769 138.943692 523.730769 139.438154 523.730769 139.932615 523.730769 140.427077 523.730769 140.921538 523.730769 141.416000 523.730769 141.910462 523.730769 142.404923 523.730769 142.899385 523.730769 143.393846 523.730769 143.888308 523.730769 144.382769 523.730769 144.877231 523.730769 145.371692 523.730769 145.866154 523.730769 146.360615 523.730769 146.855077 523.730769 147.349538 523.730769 147.844000 523.730769 148.338462 523.730769 148.832923 523.730769 149.327385 523.730769 149.821846 523.730769 150.316308 523.730769 150.810769 523.730769 151.305231 523.730769 151.799692 523.730769 152.294154 523.730769 152.788615 523.730769 153.283077 523.730769 153.777538 523.730769 154.272000 523.730769 154.766462 523.730769 155.260923 523.730769 155.755385 523.730769 156.249846 523.730769 156.744308 523.730769 157.238769 523.730769 157.733231 523.730769 158.227692 523.730769 158.722154 523.730769 159.216615 523.730769 159.711077 523.730769 160.205538 523.730769 160.700000 523.730769 161.194462 523.730769 161.688923 523.730769 162.183385 523.730769 162.677846 523.730769 163.172308 523.730769 163.666769 523.730769 164.161231 523.730769 164.655692 523.730769 165.150154 523.730769 165.644615 523.730769 166.139077 523.730769 166.633538 523.730769 167.128000 523.730769 167.622462 523.730769 168.116923 523.730769 168.611385 523.730769 169.105846 523.730769 169.600308 523.730769 170.094769 523.730769 170.589231 523.730769 171.083692 523.730769 171.578154 523.730769 172.072615 523.730769 172.567077 523.730769 173.061538 523.730769 173.556000 523.730769 174.050462 523.730769 174.544923 523.730769 175.039385 523.730769 175.533846 523.730769 176.028308 523.730769 176.522769 523.730769 177.017231 523.730769 177.511692 523.730769 178.006154 523.730769 178.500615 523.730769 178.995077 523.730769 179.489538 523.730769 179.984000 523.730769 180.478462 523.730769 180.972923 523.730769 181.467385 523.730769 181.961846 523.730769 182.456308 523.730769 182.950769 523.730769 183.445231 523.730769 183.939692 523.730769 184.434154 523.730769 184.928615 523.730769 185.423077 523.730769 185.917538 523.730769 186.412000 523.730769 186.906462 523.730769 187.400923 523.730769 187.895385 523.730769 188.389846 523.730769 188.884308 523.730769 189.378769 523.730769 189.873231 523.730769 190.367692 523.730769 190.862154 523.730769 191.356615 523.730769 191.851077 523.730769 192.345538 523.730769 192.840000 523.730769 193.334462 523.730769 193.828923 523.730769 194.323385 523.730769 194.817846 523.730769 195.312308 523.730769 195.806769 523.730769 196.301231 523.730769 196.795692 523.730769 197.290154 523.730769 197.784615 523.730769 198.279077 523.730769 198.773538 523.730769 199.268000 523.730769 199.762462 523.730769 200.256923 523.730769 200.751385 523.730769 201.245846 523.730769 201.740308 523.730769 202.234769 523.730769 202.729231 523.730769 203.223692 523.730769 203.718154 523.730769 204.212615 523.730769 204.707077 523.730769 205.201538 523.730769 205.696000 523.730769 206.190462 523.730769 206.684923 523.730769 207.179385 523.730769 207.673846 523.730769 208.168308 523.730769 208.662769 523.730769 209.157231 523.730769 209.651692 523.730769 210.146154 523.730769 210.640615 523.730769 211.135077 523.730769 211.629538 523.730769 212.124000 523.730769 212.618462 523.730769 213.112923 523.730769 213.607385 523.730769 214.101846 523.730769 214.596308 523.730769 215.090769 523.730769 215.585231 523.730769 216.079692 523.730769 216.574154 523.730769 217.068615 523.730769 217.563077 523.730769 218.057538 523.730769 218.552000 523.730769 219.046462 523.730769 219.540923 523.730769 220.035385 523.730769 220.529846 523.730769 221.024308 523.730769 221.518769 523.730769 222.013231 523.730769 222.507692 523.730769 223.002154 523.730769 223.496615 523.730769 223.991077 523.730769 224.485538 523.730769 224.980000 523.730769 225.474462 523.730769 225.968923 523.730769 226.463385 523.730769 226.957846 523.730769 227.452308 523.730769 227.946769 523.730769 228.441231 523.730769 228.935692 523.730769 229.430154 523.730769 229.924615 523.730769 230.419077 523.730769 230.913538 523.730769 231.408000 523.730769 231.902462 523.730769 232.396923 523.730769 232.891385 523.730769 233.385846 523.730769 233.880308 523.730769 234.374769 523.730769 234.869231 523.730769 235.363692 523.730769 235.858154 523.730769 236.352615 523.730769 236.847077 523.730769 237.341538 523.730769 237.836000 523.730769 238.330462 523.730769 238.824923 523.730769 239.319385 523.730769 239.813846 523.730769 240.308308 523.730769 240.802769 523.730769 241.297231 523.730769 241.791692 523.730769 242.286154 523.730769 242.780615 523.730769 243.275077 523.730769 243.769538 523.730769 244.264000 523.730769 244.758462 523.730769 245.252923 523.730769 245.747385 523.730769 246.241846 523.730769 246.736308 523.730769 247.230769 523.730769 247.725231 523.730769 248.219692 523.730769 248.714154 523.730769 249.208615 523.730769 249.703077 523.730769 250.197538 523.730769 250.692000 523.730769 251.186462 523.730769 251.680923 523.730769 252.175385 523.730769 252.669846 523.730769 253.164308 523.730769 253.658769 523.730769 254.153231 523.730769 254.647692 523.730769 255.142154 523.730769 255.636615 523.730769 256.131077 523.730769 256.625538 523.730769 257.120000 523.730769 257.614462 523.730769 258.108923 523.730769 258.603385 523.730769 259.097846 523.730769 259.592308 523.730769 260.086769 523.730761 260.581231 523.730704 261.075692 523.730547 261.570154 523.730243 262.064615 523.729742 262.559077 523.728995 263.053538 523.727951 263.548000 523.726563 264.042462 523.724780 264.536923 523.722554 265.031385 523.719835 265.525846 523.716573 266.020308 523.712720 266.514769 523.708226 267.009231 523.703042 267.503692 523.697119 267.998154 523.690407 268.492615 523.682857 268.987077 523.674420 269.481538 523.665046 269.976000 523.654687 270.470462 523.643292 270.964923 523.630813 271.459385 523.617200 271.953846 523.602404 272.448308 523.586376 272.942769 523.569066 273.437231 523.550425 273.931692 523.530404 274.426154 523.508954 274.920615 523.486025 275.415077 523.461568 275.909538 523.435533 276.404000 523.407872 276.898462 523.378535 277.392923 523.347472 277.887385 523.314635 278.381846 523.279975 278.876308 523.243441 279.370769 523.204985 279.865231 523.164557 280.359692 523.122108 280.854154 523.077589 281.348615 523.030950 281.843077 522.982142 282.337538 522.931117 282.832000 522.877823 283.326462 522.822213 283.820923 522.764237 284.315385 522.703846 284.809846 522.640990 285.304308 522.575620 285.798769 522.507687 286.293231 522.437142 286.787692 522.363935 287.282154 522.288016 287.776615 522.209338 288.271077 522.127849 288.765538 522.043502 289.260000 521.956246 289.754462 521.866033 290.248923 521.772813 290.743385 521.676537 291.237846 521.577155 291.732308 521.474619 292.226769 521.368879 292.721231 521.259886 293.215692 521.147589 293.710154 521.031941 294.204615 520.912892 294.699077 520.790393 295.193538 520.664393 295.688000 520.534845 296.182462 520.401698 296.676923 520.264904 297.171385 520.124413 297.665846 519.980175 298.160308 519.832142 298.654769 519.680264 299.149231 519.524492 299.643692 519.364777 300.138154 519.201069 300.632615 519.033319 301.127077 518.861478 301.621538 518.685496 302.116000 518.505325 302.610462 518.320914 303.104923 518.132215 303.599385 517.939178 304.093846 517.741754 304.588308 517.539894 305.082769 517.333548 305.577231 517.122667 306.071692 516.907202 306.566154 516.687104 307.060615 516.462323 307.555077 516.232810 308.049538 515.998515 308.544000 515.759390 309.038462 515.515385 309.532923 515.266450 310.027385 515.012537 310.521846 514.753597 311.016308 514.489579 311.510769 514.220435 312.005231 513.946115 312.499692 513.666570 312.994154 513.381751 313.488615 513.091608 313.983077 512.796092 314.477538 512.495155 314.972000 512.188745 315.466462 511.876815 315.960923 511.559315 316.455385 511.236196 316.949846 510.907408 317.444308 510.572902 317.938769 510.232629 318.433231 509.886540 318.927692 509.534585 319.422154 509.176714 319.916615 508.812880 320.411077 508.443031 320.905538 508.067120 321.400000 507.685096 321.894462 507.296911 322.388923 506.902515 322.883385 506.501859 323.377846 506.094893 323.872308 505.681569 324.366769 505.261837 324.861231 504.835648 325.355692 504.402951 325.850154 503.963699 326.344615 503.517842 326.839077 503.065331 327.333538 502.606115 327.828000 502.140147 328.322462 501.667376 328.816923 501.187754 329.311385 500.701231 329.805846 500.207757 330.300308 499.707284 330.794769 499.199762 331.289231 498.685142 331.783692 498.163375 332.278154 497.634411 332.772615 497.098201 333.267077 496.554696 333.761538 496.003846 334.256000 495.445603 334.750462 494.879916 335.244923 494.306737 335.739385 493.726016 336.233846 493.137704 336.728308 492.541752 337.222769 491.938110 337.717231 491.326729 338.211692 490.707560 338.706154 490.080554 339.200615 489.445661 339.695077 488.802832 340.189538 488.152017 340.684000 487.493168 341.178462 486.826235 341.672923 486.151168 342.167385 485.467919 342.661846 484.776439 343.156308 484.076677 343.650769 483.368585 344.145231 482.652113 344.639692 481.927212 345.134154 481.193833 345.628615 480.451926 346.123077 479.701442 346.617538 478.942333 347.112000 478.174547 347.606462 477.398037 348.100923 476.612753 348.595385 475.818646 349.089846 475.015666 349.584308 474.203764 350.078769 473.382891 350.573231 472.552998 351.067692 471.714035 351.562154 470.865952 352.056615 470.008702 352.551077 469.142233 353.045538 468.266498 353.540000 467.381446 354.034462 466.487029 354.528923 465.583197 355.023385 464.669901 355.517846 463.747091 356.012308 462.814719 356.506769 461.872735 357.001231 460.921090 357.495692 459.959733 357.990154 458.988617 358.484615 458.007692 358.979077 457.016909 359.473538 456.016217 359.968000 455.005569 360.462462 453.984914 360.956923 452.954204 361.451385 451.913389 361.945846 450.862419 362.440308 449.801246 362.934769 448.729820 363.429231 447.648092 363.923692 446.556013 364.418154 445.453533 364.912615 444.340603 365.407077 443.217174 365.901538 442.083196 366.396000 440.938621 366.890462 439.783398 367.384923 438.617479 367.879385 437.440814 368.373846 436.253354 368.868308 435.055050 369.362769 433.845852 369.857231 432.625711 370.351692 431.394578 370.846154 430.152404 371.340615 428.899139 371.835077 427.634734 372.329538 426.359139 372.824000 425.072306 373.318462 423.774185 373.812923 422.464726 374.307385 421.143881 374.801846 419.811601 375.296308 418.467835 375.790769 417.112535 376.285231 415.745651 376.779692 414.367134 377.274154 412.976935 377.768615 411.575004 378.263077 410.161292 378.757538 408.735751 379.252000 407.298329 379.746462 405.848979 380.240923 404.387651 380.735385 402.914296 381.229846 401.428864 381.724308 399.931306 382.218769 398.421573 382.713231 396.899616 383.207692 395.365385 383.702154 393.818863 384.196615 392.260166 384.691077 390.689442 385.185538 389.106839 385.680000 387.512504 386.174462 385.906585 386.668923 384.289231 387.163385 382.660588 387.657846 381.020806 388.152308 379.370031 388.646769 377.708412 389.141231 376.036096 389.635692 374.353232 390.130154 372.659968 390.624615 370.956450 391.119077 369.242828 391.613538 367.519248 392.108000 365.785859 392.602462 364.042810 393.096923 362.290246 393.591385 360.528317 394.085846 358.757171 394.580308 356.976954 395.074769 355.187816 395.569231 353.389904 396.063692 351.583365 396.558154 349.768349 397.052615 347.945002 397.547077 346.113472 398.041538 344.273908 398.536000 342.426457 399.030462 340.571267 399.524923 338.708486 400.019385 336.838262 400.513846 334.960742 401.008308 333.076076 401.502769 331.184409 401.997231 329.285891 402.491692 327.380670 402.986154 325.468892 403.480615 323.550707 403.975077 321.626261 404.469538 319.695703 404.964000 317.759181 405.458462 315.816842 405.952923 313.868835 406.447385 311.915307 406.941846 309.956406 407.436308 307.992280 407.930769 306.023077 408.425231 304.048945 408.919692 302.070031 409.414154 300.086484 409.908615 298.098451 410.403077 296.106081 410.897538 294.109520 411.392000 292.108918 411.886462 290.104422 412.380923 288.096179 412.875385 286.084338 413.369846 284.069047 413.864308 282.050453 414.358769 280.028705 414.853231 278.003949 415.347692 275.976335 415.842154 273.946009 416.336615 271.913120 416.831077 269.877816 417.325538 267.840245 417.820000 265.800554 418.314462 263.758891 418.808923 261.715405 419.303385 259.670242 419.797846 257.623552 420.292308 255.575481 420.786769 253.526178 421.281231 251.475790 421.775692 249.424466 422.270154 247.372354 422.764615 245.319600 423.259077 243.266354 423.753538 241.212762 424.248000 239.158973 424.742462 237.105136 425.236923 235.051396 425.731385 232.997903 426.225846 230.944805 426.720308 228.892248 427.214769 226.840382 427.709231 224.789354 428.203692 222.739311 428.698154 220.690403 429.192615 218.642776 429.687077 216.596578 430.181538 214.551958 430.676000 212.509063 431.170462 210.468041 431.664923 208.429040 432.159385 206.392208 432.653846 204.357692 433.148308 202.325642 433.642769 200.296203 434.137231 198.269525 434.631692 196.245756 435.126154 194.225042 435.620615 192.207533 436.115077 190.193375 436.609538 188.182717 437.104000 186.175707 437.598462 184.172492 438.092923 182.173221 438.587385 180.178041 439.081846 178.187100 439.576308 176.200546 440.070769 174.218527 440.565231 172.241191 441.059692 170.268685 441.554154 168.301158 442.048615 166.338757 442.543077 164.381631 443.037538 162.429926 443.532000 160.483792 444.026462 158.543376 444.520923 156.608825 445.015385 154.680288 445.509846 152.757913 446.004308 150.841847 446.498769 148.932239 446.993231 147.029235 447.487692 145.132985 447.982154 143.243635 448.476615 141.361334 448.971077 139.486230 449.465538 137.618471 449.960000 135.758204 450.454462 133.905577 450.948923 132.060739 451.443385 130.223836 451.937846 128.395018 452.432308 126.574431 452.926769 124.762224 453.421231 122.958544 453.915692 121.163540 454.410154 119.377360 454.904615 117.600150 455.399077 115.832060 455.893538 114.073236 456.388000 112.323827 456.882462 110.583982 457.376923 108.853846 457.871385 107.133569 458.365846 105.423299 458.860308 103.723182 459.354769 102.033368 459.849231 100.354004 460.343692 98.685237 460.838154 97.027217 461.332615 95.380090 461.827077 93.744004 462.321538 92.119108 462.816000 90.505549 463.310462 88.903475 463.804923 87.313034 464.299385 85.734374 464.793846 84.167642 465.288308 82.612988 465.782769 81.070557 466.277231 79.540499 466.771692 78.022962 467.266154 76.518092 467.760615 75.026039 468.255077 73.546949 468.749538 72.080971 469.244000 70.628253 469.738462 69.188942 470.232923 67.763187 470.727385 66.351135 471.221846 64.952934 471.716308 63.568732 472.210769 62.198677 472.705231 60.842917 473.199692 59.501599 473.694154 58.174872 474.188615 56.862883 474.683077 55.565781 475.177538 54.283712 475.672000 53.016826 476.166462 51.765270 476.660923 50.529191 477.155385 49.308738 477.649846 48.104059 478.144308 46.915301 478.638769 45.742613 479.133231 44.586141 479.627692 43.446035 480.122154 42.322441 480.616615 41.215508 481.111077 40.125384 481.605538 39.052217 482.100000 37.996154 482.594462 36.957343 483.088923 35.935933 483.583385 34.932070 484.077846 33.945904 484.572308 32.977581 485.066769 32.027250 485.561231 31.095058 486.055692 30.181154 486.550154 29.285686 487.044615 28.408800 487.539077 27.550646 488.033538 26.711370 488.528000 25.891121 489.022462 25.090048 489.516923 24.308296 490.011385 23.546015 490.505846 22.803353 491.000308 22.080456 491.494769 21.377474 491.989231 20.694554 492.483692 20.031843 492.978154 19.389491 493.472615 18.767644 493.967077 18.166450 494.461538 17.586058 494.956000 17.026615 495.450462 16.488269 495.944923 15.971168 496.439385 15.475460 496.933846 15.001292 497.428308 14.548814 497.922769 14.118171 498.417231 13.709513 498.911692 13.322988 499.406154 12.958742 499.900615 12.616925 500.395077 12.297683 500.889538 12.001165 501.384000 11.727519 501.878462 11.476892 502.372923 11.249433 502.867385 11.045289 503.361846 10.864608 503.856308 10.707538 504.350769 10.574227 504.845231 10.464823 505.339692 10.379473 505.834154 10.318326 506.328615 10.281529 506.823077 10.269231 507.317538 10.281537 507.812000 10.318392 508.306462 10.379695 508.800923 10.465348 509.295385 10.575254 509.789846 10.709312 510.284308 10.867426 510.778769 11.049495 511.273231 11.255422 511.767692 11.485108 512.262154 11.738454 512.756615 12.015361 513.251077 12.315732 513.745538 12.639468 514.240000 12.986469 514.734462 13.356638 515.228923 13.749876 515.723385 14.166083 516.217846 14.605163 516.712308 15.067015 517.206769 15.551542 517.701231 16.058645 518.195692 16.588225 518.690154 17.140184 519.184615 17.714423 519.679077 18.310844 520.173538 18.929347 520.668000 19.569835 521.162462 20.232208 521.656923 20.916369 522.151385 21.622219 522.645846 22.349658 523.140308 23.098589 523.634769 23.868913 524.129231 24.660531 524.623692 25.473344 525.118154 26.307255 525.612615 27.162165 526.107077 28.037974 526.601538 28.934585 527.096000 29.851898 527.590462 30.789816 528.084923 31.748239 528.579385 32.727069 529.073846 33.726208 529.568308 34.745556 530.062769 35.785016 530.557231 36.844488 531.051692 37.923875 531.546154 39.023077 532.040615 40.141996 532.535077 41.280533 533.029538 42.438590 533.524000 43.616068 534.018462 44.812869 534.512923 46.028894 535.007385 47.264044 535.501846 48.518221 535.996308 49.791327 536.490769 51.083262 536.985231 52.393928 537.479692 53.723226 537.974154 55.071059 538.468615 56.437326 538.963077 57.821931 539.457538 59.224773 539.952000 60.645756 540.446462 62.084779 540.940923 63.541744 541.435385 65.016554 541.929846 66.509108 542.424308 68.019310 542.918769 69.547059 543.413231 71.092258 543.907692 72.654808 544.402154 74.234610 544.896615 75.831565 545.391077 77.445576 545.885538 79.076544 546.380000 80.724369 546.874462 82.388954 547.368923 84.070200 547.863385 85.768007 548.357846 87.482279 548.852308 89.212915 549.346769 90.959818 549.841231 92.722889 550.335692 94.502029 550.830154 96.297140 551.324615 98.108123 551.819077 99.934880 552.313538 101.777311 552.808000 103.635319 553.302462 105.508804 553.796923 107.397669 554.291385 109.301815 554.785846 111.221142 555.280308 113.155553 555.774769 115.104949 556.269231 117.069231 556.763692 119.048300 557.258154 121.042059 557.752615 123.050409 558.247077 125.073250 558.741538 127.110485 559.236000 129.162014 559.730462 131.227740 560.224923 133.307563 560.719385 135.401385 561.213846 137.509108 561.708308 139.630632 562.202769 141.765860 562.697231 143.914692 563.191692 146.077031 563.686154 148.252777 564.180615 150.441832 564.675077 152.644097 565.169538 154.859474 565.664000 157.087864 566.158462 159.329169 566.652923 161.583290 567.147385 163.850128 567.641846 166.129585 568.136308 168.421563 568.630769 170.725962 569.125231 173.042684 569.619692 175.371630 570.114154 177.712703 570.608615 180.065802 571.103077 182.430831 571.597538 184.807689 572.092000 187.196280 572.586462 189.596503 573.080923 192.008260 573.575385 194.431454 574.069846 196.865984 574.564308 199.311754 575.058769 201.768663 575.553231 204.236614 576.047692 206.715508 576.542154 209.205246 577.036615 211.705729 577.531077 214.216860 578.025538 216.738540 578.520000 219.270669 579.014462 221.813150 579.508923 224.365884 580.003385 226.928771 580.497846 229.501715 580.992308 232.084615 581.486769 234.677374 581.981231 237.279893 582.475692 239.892073 582.970154 242.513816 583.464615 245.145023 583.959077 247.785596 584.453538 250.435435 584.948000 253.094443 585.442462 255.762520 585.936923 258.439569 586.431385 261.125491 586.925846 263.820186 587.420308 266.523557 587.914769 269.235505 588.409231 271.955931 588.903692 274.684736 589.398154 277.421823 589.892615 280.167093 590.387077 282.920446 590.881538 285.681785 591.376000 288.451010 591.870462 291.228024 592.364923 294.012727 592.859385 296.805021 593.353846 299.604808 593.848308 302.411988 594.342769 305.226464 594.837231 308.048136 595.331692 310.876907 595.826154 313.712677 596.320615 316.555348 596.815077 319.404821 597.309538 322.260998 597.804000 325.123780 598.298462 327.993069 598.792923 330.868766 599.287385 333.750772 599.781846 336.638989 600.276308 339.533319 600.770769 342.433662 601.265231 345.339920 601.759692 348.251994 602.254154 351.169787 602.748615 354.093198 603.243077 357.022131 603.737538 359.956485 604.232000 362.896164 604.726462 365.841067 605.220923 368.791096 605.715385 371.746154 606.209846 374.706140 606.704308 377.670958 607.198769 380.640507 607.693231 383.614690 608.187692 386.593408 608.682154 389.576562 609.176615 392.564053 609.671077 395.555784 610.165538 398.551656 610.660000 401.551569 611.154462 404.555426 611.648923 407.563128 612.143385 410.574575 612.637846 413.589671 613.132308 416.608315 613.626769 419.630410 614.121231 422.655857 614.615692 425.684557 615.110154 428.716412 615.604615 431.751323 616.099077 434.789192 616.593538 437.829919 617.088000 440.873407 617.582462 443.919556 618.076923 446.968269 618.571385 450.019447 619.065846 453.072990 619.560308 456.128801 620.054769 459.186781 620.549231 462.246831 621.043692 465.308852 621.538154 468.372747 622.032615 471.438417 622.527077 474.505762 623.021538 477.574685 623.516000 480.645086 624.010462 483.716868 624.504923 486.789931 624.999385 489.864177 625.493846 492.939508 625.988308 496.015824 626.482769 499.093028 626.977231 502.171020 627.471692 505.249703 627.966154 508.328977 628.460615 511.408744 628.955077 514.488905 629.449538 517.569362 629.944000 520.650016 630.438462 523.730769" class="line reactive nofill"/></g></g><g class="titles"><text x="400.0" y="26" class="title plot_title">tagMac: 0x280079</text></g><g transform="translate(137, 46)" class="plot overlay"><g class="series serie-0 color-0"><g class="dots"><circle cx="12.36153846153846" cy="523.7307692307694" r="2.5" class="dot reactive tooltip-trigger"/><desc class="value">-75</desc><desc class="x top">12.36153846153846</desc><desc class="y top">523.7307692307694</desc></g><g class="dots"><circle cx="135.97692307692307" cy="523.7307692307694" r="2.5" class="dot reactive tooltip-trigger"/><desc class="value">-75</desc><desc class="x top">135.97692307692307</desc><desc class="y top">523.7307692307694</desc></g><g class="dots"><circle cx="259.59230769230766" cy="523.7307692307694" r="2.5" class="dot reactive tooltip-trigger"/><desc class="value">-75</desc><desc class="x top">259.59230769230766</desc><desc class="y top">523.7307692307694</desc></g><g class="dots"><circle cx="383.20769230769224" cy="395.36538461538476" r="2.5" class="dot reactive tooltip-trigger"/><desc class="value">-74</desc><desc class="x left top">383.20769230769224</desc><desc class="y left top">395.36538461538476</desc></g><g class="dots"><circle cx="506.8230769230769" cy="10.269230769230603" r="2.5" class="dot reactive tooltip-trigger"/><desc class="value">-71</desc><desc class="x left">506.8230769230769</desc><desc class="y left">10.269230769230603</desc></g><g class="dots"><circle cx="630.4384615384615" cy="523.7307692307694" r="2.5" class="dot reactive tooltip-trigger"/><desc class="value">-75</desc><desc class="x left top">630.4384615384615</desc><desc class="y left top">523.7307692307694</desc></g></g></g><g transform="translate(137, 46)" class="plot text-overlay"><g class="series serie-0 color-0"/></g><g transform="translate(137, 46)" class="plot tooltip-overlay"><g transform="translate(0 0)" style="opacity: 0" class="tooltip"><rect rx="0" ry="0" width="0" height="0" class="tooltip-box"/><g class="text"/></g></g><g transform="translate(10, 56)" class="legends"><g id="activate-serie-0" class="legend reactive activate-serie"><rect x="0.0" y="1.0" width="12" height="12" class="color-0 reactive"/><text x="17.0" y="11.2">3c0c5940</text></g></g><g transform="translate(790, 56)" class="legends"/></g></svg>