<?xml version='1.0' encoding='utf-8'?>
<svg xmlns="http://www.w3.org/2000/svg" xmlns:xlink="http://www.w3.org/1999/xlink" id="chart-8ab5c339-6fb9-4f6a-84d6-d5c5fbcb3cb6" class="pygal-chart" viewBox="0 0 800 600"><!--Generated with pygal 2.4.0 (lxml) ©Kozea 2012-2016 on 2019-11-27--><!--http://pygal.org--><!--http://github.com/Kozea/pygal--><defs><style type="text/css">#chart-8ab5c339-6fb9-4f6a-84d6-d5c5fbcb3cb6{-webkit-user-select:none;-webkit-font-smoothing:antialiased;font-family:Consolas,"Liberation Mono",Menlo,Courier,monospace}#chart-8ab5c339-6fb9-4f6a-84d6-d5c5fbcb3cb6 .title{font-family:Consolas,"Liberation Mono",Menlo,Courier,monospace;font-size:16px}#chart-8ab5c339-6fb9-4f6a-84d6-d5c5fbcb3cb6 .legends .legend text{font-family:Consolas,"Liberation Mono",Menlo,Courier,monospace;font-size:14px}#chart-8ab5c339-6fb9-4f6a-84d6-d5c5fbcb3cb6 .axis text{font-family:Consolas,"Liberation Mono",Menlo,Courier,monospace;font-size:10px}#chart-8ab5c339-6fb9-4f6a-84d6-d5c5fbcb3cb6 .axis text.major{font-family:Consolas,"Liberation Mono",Menlo,Courier,monospace;font-size:10px}#chart-8ab5c339-6fb9-4f6a-84d6-d5c5fbcb3cb6 .text-overlay text.value{font-family:Consolas,"Liberation Mono",Menlo,Courier,monospace;font-size:16px}#chart-8ab5c339-6fb9-4f6a-84d6-d5c5fbcb3cb6 .text-overlay text.label{font-family:Consolas,"Liberation Mono",Menlo,Courier,monospace;font-size:10px}#chart-8ab5c339-6fb9-4f6a-84d6-d5c5fbcb3cb6 .tooltip{font-family:Consolas,"Liberation Mono",Menlo,Courier,monospace;font-size:14px}#chart-8ab5c339-6fb9-4f6a-84d6-d5c5fbcb3cb6 text.no_data{font-family:Consolas,"Liberation Mono",Menlo,Courier,monospace;font-size:64px}
#chart-8ab5c339-6fb9-4f6a-84d6-d5c5fbcb3cb6{background-color:rgba(249,249,249,1)}#chart-8ab5c339-6fb9-4f6a-84d6-d5c5fbcb3cb6 path,#chart-8ab5c339-6fb9-4f6a-84d6-d5c5fbcb3cb6 line,#chart-8ab5c339-6fb9-4f6a-84d6-d5c5fbcb3cb6 rect,#chart-8ab5c339-6fb9-4f6a-84d6-d5c5fbcb3cb6 circle{-webkit-transition:150ms;-moz-transition:150ms;transition:150ms}#chart-8ab5c339-6fb9-4f6a-84d6-d5c5fbcb3cb6 .graph &gt; .background{fill:rgba(249,249,249,1)}#chart-8ab5c339-6fb9-4f6a-84d6-d5c5fbcb3cb6 .plot &gt; .background{fill:rgba(255,255,255,1)}#chart-8ab5c339-6fb9-4f6a-84d6-d5c5fbcb3cb6 .graph{fill:rgba(0,0,0,.87)}#chart-8ab5c339-6fb9-4f6a-84d6-d5c5fbcb3cb6 text.no_data{fill:rgba(0,0,0,1)}#chart-8ab5c339-6fb9-4f6a-84d6-d5c5fbcb3cb6 .title{fill:rgba(0,0,0,1)}#chart-8ab5c339-6fb9-4f6a-84d6-d5c5fbcb3cb6 .legends .legend text{fill:rgba(0,0,0,.87)}#chart-8ab5c339-6fb9-4f6a-84d6-d5c5fbcb3cb6 .legends .legend:hover text{fill:rgba(0,0,0,1)}#chart-8ab5c339-6fb9-4f6a-84d6-d5c5fbcb3cb6 .axis .line{stroke:rgba(0,0,0,1)}#chart-8ab5c339-6fb9-4f6a-84d6-d5c5fbcb3cb6 .axis .guide.line{stroke:rgba(0,0,0,.54)}#chart-8ab5c339-6fb9-4f6a-84d6-d5c5fbcb3cb6 .axis .major.line{stroke:rgba(0,0,0,.87)}#chart-8ab5c339-6fb9-4f6a-84d6-d5c5fbcb3cb6 .axis text.major{fill:rgba(0,0,0,1)}#chart-8ab5c339-6fb9-4f6a-84d6-d5c5fbcb3cb6 .axis.y .guides:hover .guide.line,#chart-8ab5c339-6fb9-4f6a-84d6-d5c5fbcb3cb6 .line-graph .axis.x .guides:hover .guide.line,#chart-8ab5c339-6fb9-4f6a-84d6-d5c5fbcb3cb6 .stackedline-graph .axis.x .guides:hover .guide.line,#chart-8ab5c339-6fb9-4f6a-84d6-d5c5fbcb3cb6 .xy-graph .axis.x .guides:hover .guide.line{stroke:rgba(0,0,0,1)}#chart-8ab5c339-6fb9-4f6a-84d6-d5c5fbcb3cb6 .axis .guides:hover text{fill:rgba(0,0,0,1)}#chart-8ab5c339-6fb9-4f6a-84d6-d5c5fbcb3cb6 .reactive{fill-opacity:.7;stroke-opacity:.8}#chart-8ab5c339-6fb9-4f6a-84d6-d5c5fbcb3cb6 .ci{stroke:rgba(0,0,0,.87)}#chart-8ab5c339-6fb9-4f6a-84d6-d5c5fbcb3cb6 .reactive.active,#chart-8ab5c339-6fb9-4f6a-84d6-d5c5fbcb3cb6 .active .reactive{fill-opacity:.8;stroke-opacity:.9;stroke-width:4}#chart-8ab5c339-6fb9-4f6a-84d6-d5c5fbcb3cb6 .ci .reactive.active{stroke-width:1.5}#chart-8ab5c339-6fb9-4f6a-84d6-d5c5fbcb3cb6 .series text{fill:rgba(0,0,0,1)}#chart-8ab5c339-6fb9-4f6a-84d6-d5c5fbcb3cb6 .tooltip rect{fill:rgba(255,255,255,1);stroke:rgba(0,0,0,1);-webkit-transition:opacity 150ms;-moz-transition:opacity 150ms;transition:opacity 150ms}#chart-8ab5c339-6fb9-4f6a-84d6-d5c5fbcb3cb6 .tooltip .label{fill:rgba(0,0,0,.87)}#chart-8ab5c339-6fb9-4f6a-84d6-d5c5fbcb3cb6 .tooltip .label{fill:rgba(0,0,0,.87)}#chart-8ab5c339-6fb9-4f6a-84d6-d5c5fbcb3cb6 .tooltip .legend{font-size:.8em;fill:rgba(0,0,0,.54)}#chart-8ab5c339-6fb9-4f6a-84d6-d5c5fbcb3cb6 .tooltip .x_label{font-size:.6em;fill:rgba(0,0,0,1)}#chart-8ab5c339-6fb9-4f6a-84d6-d5c5fbcb3cb6 .tooltip .xlink{font-size:.5em;text-decoration:underline}#chart-8ab5c339-6fb9-4f6a-84d6-d5c5fbcb3cb6 .tooltip .value{font-size:1.5em}#chart-8ab5c339-6fb9-4f6a-84d6-d5c5fbcb3cb6 .bound{font-size:.5em}#chart-8ab5c339-6fb9-4f6a-84d6-d5c5fbcb3cb6 .max-value{font-size:.75em;fill:rgba(0,0,0,.54)}#chart-8ab5c339-6fb9-4f6a-84d6-d5c5fbcb3cb6 .map-element{fill:rgba(255,255,255,1);stroke:rgba(0,0,0,.54) !important}#chart-8ab5c339-6fb9-4f6a-84d6-d5c5fbcb3cb6 .map-element .reactive{fill-opacity:inherit;stroke-opacity:inherit}#chart-8ab5c339-6fb9-4f6a-84d6-d5c5fbcb3cb6 .color-0,#chart-8ab5c339-6fb9-4f6a-84d6-d5c5fbcb3cb6 .color-0 a:visited{stroke:#F44336;fill:#F44336}#chart-8ab5c339-6fb9-4f6a-84d6-d5c5fbcb3cb6 .text-overlay .color-0 text{fill:black}
#chart-8ab5c339-6fb9-4f6a-84d6-d5c5fbcb3cb6 text.no_data{text-anchor:middle}#chart-8ab5c339-6fb9-4f6a-84d6-d5c5fbcb3cb6 .guide.line{fill:none}#chart-8ab5c339-6fb9-4f6a-84d6-d5c5fbcb3cb6 .centered{text-anchor:middle}#chart-8ab5c339-6fb9-4f6a-84d6-d5c5fbcb3cb6 .title{text-anchor:middle}#chart-8ab5c339-6fb9-4f6a-84d6-d5c5fbcb3cb6 .legends .legend text{fill-opacity:1}#chart-8ab5c339-6fb9-4f6a-84d6-d5c5fbcb3cb6 .axis.x text{text-anchor:middle}#chart-8ab5c339-6fb9-4f6a-84d6-d5c5fbcb3cb6 .axis.x:not(.web) text[transform]{text-anchor:start}#chart-8ab5c339-6fb9-4f6a-84d6-d5c5fbcb3cb6 .axis.x:not(.web) text[transform].backwards{text-anchor:end}#chart-8ab5c339-6fb9-4f6a-84d6-d5c5fbcb3cb6 .axis.y text{text-anchor:end}#chart-8ab5c339-6fb9-4f6a-84d6-d5c5fbcb3cb6 .axis.y text[transform].backwards{text-anchor:start}#chart-8ab5c339-6fb9-4f6a-84d6-d5c5fbcb3cb6 .axis.y2 text{text-anchor:start}#chart-8ab5c339-6fb9-4f6a-84d6-d5c5fbcb3cb6 .axis.y2 text[transform].backwards{text-anchor:end}#chart-8ab5c339-6fb9-4f6a-84d6-d5c5fbcb3cb6 .axis .guide.line{stroke-dasharray:4,4}#chart-8ab5c339-6fb9-4f6a-84d6-d5c5fbcb3cb6 .axis .major.guide.line{stroke-dasharray:6,6}#chart-8ab5c339-6fb9-4f6a-84d6-d5c5fbcb3cb6 .horizontal .axis.y .guide.line,#chart-8ab5c339-6fb9-4f6a-84d6-d5c5fbcb3cb6 .horizontal .axis.y2 .guide.line,#chart-8ab5c339-6fb9-4f6a-84d6-d5c5fbcb3cb6 .vertical .axis.x .guide.line{opacity:0}#chart-8ab5c339-6fb9-4f6a-84d6-d5c5fbcb3cb6 .horizontal .axis.always_show .guide.line,#chart-8ab5c339-6fb9-4f6a-84d6-d5c5fbcb3cb6 .vertical .axis.always_show .guide.line{opacity:1 !important}#chart-8ab5c339-6fb9-4f6a-84d6-d5c5fbcb3cb6 .axis.y .guides:hover .guide.line,#chart-8ab5c339-6fb9-4f6a-84d6-d5c5fbcb3cb6 .axis.y2 .guides:hover .guide.line,#chart-8ab5c339-6fb9-4f6a-84d6-d5c5fbcb3cb6 .axis.x .guides:hover .guide.line{opacity:1}#chart-8ab5c339-6fb9-4f6a-84d6-d5c5fbcb3cb6 .axis .guides:hover text{opacity:1}#chart-8ab5c339-6fb9-4f6a-84d6-d5c5fbcb3cb6 .nofill{fill:none}#chart-8ab5c339-6fb9-4f6a-84d6-d5c5fbcb3cb6 .subtle-fill{fill-opacity:.2}#chart-8ab5c339-6fb9-4f6a-84d6-d5c5fbcb3cb6 .dot{stroke-width:1px;fill-opacity:1}#chart-8ab5c339-6fb9-4f6a-84d6-d5c5fbcb3cb6 .dot.active{stroke-width:5px}#chart-8ab5c339-6fb9-4f6a-84d6-d5c5fbcb3cb6 .dot.negative{fill:transparent}#chart-8ab5c339-6fb9-4f6a-84d6-d5c5fbcb3cb6 text,#chart-8ab5c339-6fb9-4f6a-84d6-d5c5fbcb3cb6 tspan{stroke:none !important}#chart-8ab5c339-6fb9-4f6a-84d6-d5c5fbcb3cb6 .series text.active{opacity:1}#chart-8ab5c339-6fb9-4f6a-84d6-d5c5fbcb3cb6 .tooltip rect{fill-opacity:.95;stroke-width:.5}#chart-8ab5c339-6fb9-4f6a-84d6-d5c5fbcb3cb6 .tooltip text{fill-opacity:1}#chart-8ab5c339-6fb9-4f6a-84d6-d5c5fbcb3cb6 .showable{visibility:hidden}#chart-8ab5c339-6fb9-4f6a-84d6-d5c5fbcb3cb6 .showable.shown{visibility:visible}#chart-8ab5c339-6fb9-4f6a-84d6-d5c5fbcb3cb6 .gauge-background{fill:rgba(229,229,229,1);stroke:none}#chart-8ab5c339-6fb9-4f6a-84d6-d5c5fbcb3cb6 .bg-lines{stroke:rgba(249,249,249,1);stroke-width:2px}</style><script type="text/javascript">window.pygal = window.pygal || {};window.pygal.config = window.pygal.config || {};window.pygal.config['8ab5c339-6fb9-4f6a-84d6-d5c5fbcb3cb6'] = {"allow_interruptions": false, "box_mode": "extremes", "classes": ["pygal-chart"], "css": ["file://style.css", "file://graph.css"], "defs": [], "disable_xml_declaration": false, "dots_size": 2.5, "dynamic_print_values": false, "explicit_size": false, "fill": false, "force_uri_protocol": "https", "formatter": null, "half_pie": false, "height": 600, "include_x_axis": false, "inner_radius": 0, "interpolate": "cubic", "interpolation_parameters": {}, "interpolation_precision": 250, "inverse_y_axis": false, "js": ["//kozea.github.io/pygal.js/2.0.x/pygal-tooltips.min.js"], "legend_at_bottom": false, "legend_at_bottom_columns": null, "legend_box_size": 12, "logarithmic": false, "margin": 20, "margin_bottom": null, "margin_left": null, "margin_right": null, "margin_top": null, "max_scale": 16, "min_scale": 4, "missing_value_fill_truncation": "x", "no_data_text": "No data", "no_prefix": false, "order_min": null, "pretty_print": false, "print_labels": true, "print_values": false, "print_values_position": "center", "print_zeroes": true, "range": null, "rounded_bars": null, "secondary_range": null, "show_dots": true, "show_legend": true, "show_minor_x_labels": true, "show_minor_y_labels": true, "show_only_major_dots": false, "show_x_guides": false, "show_x_labels": true, "show_y_guides": true, "show_y_labels": true, "spacing": 10, "stack_from_top": false, "strict": false, "stroke": true, "stroke_style": null, "style": {"background": "rgba(249, 249, 249, 1)", "ci_colors": [], "colors": ["#F44336", "#3F51B5", "#009688", "#FFC107", "#FF5722", "#9C27B0", "#03A9F4", "#8BC34A", "#FF9800", "#E91E63", "#2196F3", "#4CAF50", "#FFEB3B", "#673AB7", "#00BCD4", "#CDDC39", "#9E9E9E", "#607D8B"], "font_family": "Consolas, \"Liberation Mono\", Menlo, Courier, monospace", "foreground": "rgba(0, 0, 0, .87)", "foreground_strong": "rgba(0, 0, 0, 1)", "foreground_subtle": "rgba(0, 0, 0, .54)", "guide_stroke_dasharray": "4,4", "label_font_family": "Consolas, \"Liberation Mono\", Menlo, Courier, monospace", "label_font_size": 10, "legend_font_family": "Consolas, \"Liberation Mono\", Menlo, Courier, monospace", "legend_font_size": 14, "major_guide_stroke_dasharray": "6,6", "major_label_font_family": "Consolas, \"Liberation Mono\", Menlo, Courier, monospace", "major_label_font_size": 10, "no_data_font_family": "Consolas, \"Liberation Mono\", Menlo, Courier, monospace", "no_data_font_size": 64, "opacity": ".7", "opacity_hover": ".8", "plot_background": "rgba(255, 255, 255, 1)", "stroke_opacity": ".8", "stroke_opacity_hover": ".9", "title_font_family": "Consolas, \"Liberation Mono\", Menlo, Courier, monospace", "title_font_size": 16, "tooltip_font_family": "Consolas, \"Liberation Mono\", Menlo, Courier, monospace", "tooltip_font_size": 14, "transition": "150ms", "value_background": "rgba(229, 229, 229, 1)", "value_colors": [], "value_font_family": "Consolas, \"Liberation Mono\", Menlo, Courier, monospace", "value_font_size": 16, "value_label_font_family": "Consolas, \"Liberation Mono\", Menlo, Courier, monospace", "value_label_font_size": 10}, "title": "tagMac: 0x286dc0", "tooltip_border_radius": 0, "tooltip_fancy_mode": true, "truncate_label": null, "truncate_legend": null, "width": 800, "x_label_rotation": 0, "x_labels": null, "x_labels_major": null, "x_labels_major_count": null, "x_labels_major_every": null, "x_title": null, "xrange": null, "y_label_rotation": 0, "y_labels": null, "y_labels_major": null, "y_labels_major_count": null, "y_labels_major_every": null, "y_title": null, "zero": 0, "legends": ["6f770b36"]}</script><script type="text/javascript" xlink:href="https://kozea.github.io/pygal.js/2.0.x/pygal-tooltips.min.js"/></defs><title>tagMac: 0x286dc0</title><g class="graph line-graph vertical"><rect x="0" y="0" width="800" height="600" class="background"/><g transform="translate(149, 46)" class="plot"><rect x="0" y="0" width="630.8" height="534" class="background"/><g class="axis y always_show"><path d="M0.000000 534.000000 h630.800000" class="line"/><g class="guides"><path d="M0.000000 499.838642 h630.800000" class="guide line"/><text x="-5" y="503.33864230728375" class="">-75.1</text><title>-75.1</title></g><g class="guides"><path d="M0.000000 455.560188 h630.800000" class="major guide line"/><text x="-5" y="459.06018787030087" class="major">-75</text><title>-75</title></g><g class="guides"><path d="M0.000000 411.281733 h630.800000" class="guide line"/><text x="-5" y="414.781733433318" class="">-74.9</text><title>-74.9</title></g><g class="guides"><path d="M0.000000 367.003279 h630.800000" class="guide line"/><text x="-5" y="370.5032789963288" class="">-74.8</text><title>-74.8</title></g><g class="guides"><path d="M0.000000 322.724825 h630.800000" class="guide line"/><text x="-5" y="326.22482455934585" class="">-74.7</text><title>-74.7</title></g><g class="guides"><path d="M0.000000 278.446370 h630.800000" class="guide line"/><text x="-5" y="281.9463701223567" class="">-74.6</text><title>-74.6</title></g><g class="guides"><path d="M0.000000 234.167916 h630.800000" class="major guide line"/><text x="-5" y="237.66791568537377" class="major">-74.5</text><title>-74.5</title></g><g class="guides"><path d="M0.000000 189.889461 h630.800000" class="guide line"/><text x="-5" y="193.3894612483909" class="">-74.4</text><title>-74.4</title></g><g class="guides"><path d="M0.000000 145.611007 h630.800000" class="guide line"/><text x="-5" y="149.1110068114017" class="">-74.3</text><title>-74.3</title></g><g class="guides"><path d="M0.000000 101.332552 h630.800000" class="guide line"/><text x="-5" y="104.83255237441881" class="">-74.2</text><title>-74.2</title></g><g class="guides"><path d="M0.000000 57.054098 h630.800000" class="guide line"/><text x="-5" y="60.55409793742962" class="">-74.1</text><title>-74.1</title></g><g class="guides"><path d="M0.000000 12.775644 h630.800000" class="major guide line"/><text x="-5" y="16.275643500446677" class="major">-74</text><title>-74</title></g></g><g class="series serie-0 color-0"><path d="M12.130769 455.560188 L12.939487 452.726384 13.748205 449.892682 14.556923 447.059184 15.365641 444.225992 16.174359 441.393208 16.983077 438.560934 17.791795 435.729272 18.600513 432.898325 19.409231 430.068193 20.217949 427.238980 21.026667 424.410787 21.835385 421.583716 22.644103 418.757869 23.452821 415.933349 24.261538 413.110256 25.070256 410.288695 25.878974 407.468765 26.687692 404.650569 27.496410 401.834210 28.305128 399.019790 29.113846 396.207409 29.922564 393.397171 30.731282 390.589178 31.540000 387.783530 32.348718 384.980331 33.157436 382.179683 33.966154 379.381687 34.774872 376.586446 35.583590 373.794061 36.392308 371.004634 37.201026 368.218268 38.009744 365.435065 38.818462 362.655126 39.627179 359.878554 40.435897 357.105450 41.244615 354.335917 42.053333 351.570057 42.862051 348.807971 43.670769 346.049762 44.479487 343.295532 45.288205 340.545382 46.096923 337.799415 46.905641 335.057733 47.714359 332.320437 48.523077 329.587631 49.331795 326.859415 50.140513 324.135892 50.949231 321.417163 51.757949 318.703332 52.566667 315.994499 53.375385 313.290768 54.184103 310.592239 54.992821 307.899015 55.801538 305.211198 56.610256 302.528890 57.418974 299.852193 58.227692 297.181209 59.036410 294.516040 59.845128 291.856788 60.653846 289.203555 61.462564 286.556443 62.271282 283.915554 63.080000 281.280990 63.888718 278.652854 64.697436 276.031246 65.506154 273.416270 66.314872 270.808026 67.123590 268.206618 67.932308 265.612147 68.741026 263.024716 69.549744 260.444425 70.358462 257.871378 71.167179 255.305676 71.975897 252.747422 72.784615 250.196716 73.593333 247.653662 74.402051 245.118361 75.210769 242.590916 76.019487 240.071428 76.828205 237.560000 77.636923 235.056732 78.445641 232.561729 79.254359 230.075090 80.063077 227.596919 80.871795 225.127318 81.680513 222.666388 82.489231 220.214232 83.297949 217.770951 84.106667 215.336647 84.915385 212.911424 85.724103 210.495382 86.532821 208.088623 87.341538 205.691250 88.150256 203.303365 88.958974 200.925069 89.767692 198.556465 90.576410 196.197655 91.385128 193.848740 92.193846 191.509823 93.002564 189.181006 93.811282 186.862391 94.620000 184.554079 95.428718 182.256173 96.237436 179.968775 97.046154 177.691987 97.854872 175.425910 98.663590 173.170648 99.472308 170.926301 100.281026 168.692973 101.089744 166.470764 101.898462 164.259777 102.707179 162.060114 103.515897 159.871877 104.324615 157.695168 105.133333 155.530089 105.942051 153.376742 106.750769 151.235229 107.559487 149.105652 108.368205 146.988114 109.176923 144.882715 109.985641 142.789558 110.794359 140.708746 111.603077 138.640379 112.411795 136.584561 113.220513 134.541393 114.029231 132.510977 114.837949 130.493416 115.646667 128.488810 116.455385 126.497263 117.264103 124.518876 118.072821 122.553752 118.881538 120.601992 119.690256 118.663698 120.498974 116.738972 121.307692 114.827917 122.116410 112.930634 122.925128 111.047225 123.733846 109.177793 124.542564 107.322440 125.351282 105.481266 126.160000 103.654376 126.968718 101.841869 127.777436 100.043850 128.586154 98.260418 129.394872 96.491678 130.203590 94.737729 131.012308 92.998676 131.821026 91.274619 132.629744 89.565660 133.438462 87.871902 134.247179 86.193447 135.055897 84.530396 135.864615 82.882853 136.673333 81.250917 137.482051 79.634693 138.290769 78.034281 139.099487 76.449784 139.908205 74.881304 140.716923 73.328942 141.525641 71.792801 142.334359 70.272983 143.143077 68.769590 143.951795 67.282724 144.760513 65.812487 145.569231 64.358980 146.377949 62.922307 147.186667 61.502568 147.995385 60.099866 148.804103 58.714303 149.612821 57.345982 150.421538 55.995003 151.230256 54.661469 152.038974 53.345482 152.847692 52.047144 153.656410 50.766557 154.465128 49.503824 155.273846 48.259045 156.082564 47.032324 156.891282 45.823761 157.700000 44.633460 158.508718 43.461522 159.317436 42.308049 160.126154 41.173144 160.934872 40.056907 161.743590 38.959442 162.552308 37.880850 163.361026 36.821233 164.169744 35.780694 164.978462 34.759334 165.787179 33.757255 166.595897 32.774559 167.404615 31.811349 168.213333 30.867726 169.022051 29.943793 169.830769 29.039651 170.639487 28.155403 171.448205 27.291150 172.256923 26.446994 173.065641 25.623038 173.874359 24.819383 174.683077 24.036132 175.491795 23.273386 176.300513 22.531248 177.109231 21.809820 177.917949 21.109203 178.726667 20.429500 179.535385 19.770812 180.344103 19.133242 181.152821 18.516891 181.961538 17.921863 182.770256 17.348258 183.578974 16.796178 184.387692 16.265727 185.196410 15.757005 186.005128 15.270115 186.813846 14.805158 187.622564 14.362238 188.431282 13.941455 189.240000 13.542912 190.048718 13.166711 190.857436 12.812954 191.666154 12.481742 192.474872 12.173179 193.283590 11.887365 194.092308 11.624404 194.901026 11.384396 195.709744 11.167444 196.518462 10.973651 197.327179 10.803117 198.135897 10.655945 198.944615 10.532238 199.753333 10.432096 200.562051 10.355623 201.370769 10.302919 202.179487 10.274088 202.988205 10.269231 203.796923 10.288450 204.605641 10.331847 205.414359 10.399524 206.223077 10.491584 207.031795 10.608127 207.840513 10.749257 208.649231 10.915076 209.457949 11.105684 210.266667 11.321185 211.075385 11.561680 211.884103 11.827271 212.692821 12.118061 213.501538 12.434151 214.310256 12.775644 215.118974 13.142595 215.927692 13.534881 216.736410 13.952331 217.545128 14.394776 218.353846 14.862044 219.162564 15.353967 219.971282 15.870374 220.780000 16.411096 221.588718 16.975961 222.397436 17.564801 223.206154 18.177445 224.014872 18.813723 224.823590 19.473465 225.632308 20.156501 226.441026 20.862660 227.249744 21.591774 228.058462 22.343672 228.867179 23.118184 229.675897 23.915139 230.484615 24.734368 231.293333 25.575702 232.102051 26.438969 232.910769 27.323999 233.719487 28.230624 234.528205 29.158672 235.336923 30.107973 236.145641 31.078359 236.954359 32.069658 237.763077 33.081700 238.571795 34.114316 239.380513 35.167336 240.189231 36.240589 240.997949 37.333905 241.806667 38.447115 242.615385 39.580049 243.424103 40.732535 244.232821 41.904405 245.041538 43.095489 245.850256 44.305615 246.658974 45.534615 247.467692 46.782318 248.276410 48.048555 249.085128 49.333154 249.893846 50.635947 250.702564 51.956762 251.511282 53.295431 252.320000 54.651783 253.128718 56.025648 253.937436 57.416855 254.746154 58.825236 255.554872 60.250620 256.363590 61.692836 257.172308 63.151716 257.981026 64.627088 258.789744 66.118783 259.598462 67.626631 260.407179 69.150462 261.215897 70.690105 262.024615 72.245391 262.833333 73.816150 263.642051 75.402211 264.450769 77.003405 265.259487 78.619561 266.068205 80.250510 266.876923 81.896082 267.685641 83.556106 268.494359 85.230413 269.303077 86.918832 270.111795 88.621193 270.920513 90.337327 271.729231 92.067063 272.537949 93.810231 273.346667 95.566662 274.155385 97.336185 274.964103 99.118630 275.772821 100.913827 276.581538 102.721606 277.390256 104.541798 278.198974 106.374232 279.007692 108.218738 279.816410 110.075145 280.625128 111.943285 281.433846 113.822987 282.242564 115.714081 283.051282 117.616397 283.860000 119.529764 284.668718 121.454014 285.477436 123.388975 286.286154 125.334479 287.094872 127.290354 287.903590 129.256430 288.712308 131.232539 289.521026 133.218509 290.329744 135.214171 291.138462 137.219354 291.947179 139.233889 292.755897 141.257606 293.564615 143.290334 294.373333 145.331904 295.182051 147.382145 295.990769 149.440888 296.799487 151.507962 297.608205 153.583197 298.416923 155.666424 299.225641 157.757472 300.034359 159.856172 300.843077 161.962353 301.651795 164.075845 302.460513 166.196478 303.269231 168.324083 304.077949 170.458489 304.886667 172.599525 305.695385 174.747023 306.504103 176.900812 307.312821 179.060722 308.121538 181.226584 308.930256 183.398226 309.738974 185.575479 310.547692 187.758173 311.356410 189.946138 312.165128 192.139203 312.973846 194.337200 313.782564 196.539958 314.591282 198.747306 315.400000 200.959075 316.208718 203.175095 317.017436 205.395195 317.826154 207.619206 318.634872 209.846958 319.443590 212.078280 320.252308 214.313003 321.061026 216.550957 321.869744 218.791971 322.678462 221.035875 323.487179 223.282500 324.295897 225.531676 325.104615 227.783232 325.913333 230.036998 326.722051 232.292805 327.530769 234.550482 328.339487 236.809859 329.148205 239.070766 329.956923 241.333034 330.765641 243.596492 331.574359 245.860970 332.383077 248.126298 333.191795 250.392307 334.000513 252.658825 334.809231 254.925683 335.617949 257.192712 336.426667 259.459741 337.235385 261.726599 338.044103 263.993117 338.852821 266.259126 339.661538 268.524454 340.470256 270.788932 341.278974 273.052390 342.087692 275.314658 342.896410 277.575565 343.705128 279.834942 344.513846 282.092619 345.322564 284.348426 346.131282 286.602192 346.940000 288.853748 347.748718 291.102924 348.557436 293.349549 349.366154 295.593453 350.174872 297.834467 350.983590 300.072421 351.792308 302.307144 352.601026 304.538466 353.409744 306.766218 354.218462 308.990229 355.027179 311.210329 355.835897 313.426349 356.644615 315.638118 357.453333 317.845466 358.262051 320.048224 359.070769 322.246221 359.879487 324.439286 360.688205 326.627251 361.496923 328.809945 362.305641 330.987198 363.114359 333.158840 363.923077 335.324702 364.731795 337.484612 365.540513 339.638401 366.349231 341.785899 367.157949 343.926935 367.966667 346.061341 368.775385 348.188946 369.584103 350.309579 370.392821 352.423071 371.201538 354.529252 372.010256 356.627952 372.818974 358.719000 373.627692 360.802227 374.436410 362.877462 375.245128 364.944536 376.053846 367.003279 376.862564 369.053520 377.671282 371.095090 378.480000 373.127818 379.288718 375.151535 380.097436 377.166070 380.906154 379.171253 381.714872 381.166915 382.523590 383.152885 383.332308 385.128994 384.141026 387.095070 384.949744 389.050945 385.758462 390.996449 386.567179 392.931410 387.375897 394.855660 388.184615 396.769027 388.993333 398.671343 389.802051 400.562437 390.610769 402.442139 391.419487 404.310279 392.228205 406.166686 393.036923 408.011192 393.845641 409.843626 394.654359 411.663818 395.463077 413.471597 396.271795 415.266794 397.080513 417.049239 397.889231 418.818762 398.697949 420.575193 399.506667 422.318361 400.315385 424.048097 401.124103 425.764231 401.932821 427.466592 402.741538 429.155011 403.550256 430.829318 404.358974 432.489342 405.167692 434.134914 405.976410 435.765863 406.785128 437.382019 407.593846 438.983213 408.402564 440.569274 409.211282 442.140033 410.020000 443.695319 410.828718 445.234962 411.637436 446.758793 412.446154 448.266641 413.254872 449.758336 414.063590 451.233708 414.872308 452.692588 415.681026 454.134804 416.489744 455.560188 417.298462 456.968608 418.107179 458.360094 418.915897 459.734712 419.724615 461.092532 420.533333 462.433621 421.342051 463.758047 422.150769 465.065878 422.959487 466.357182 423.768205 467.632028 424.576923 468.890482 425.385641 470.132614 426.194359 471.358491 427.003077 472.568181 427.811795 473.761753 428.620513 474.939273 429.429231 476.100811 430.237949 477.246434 431.046667 478.376211 431.855385 479.490209 432.664103 480.588496 433.472821 481.671140 434.281538 482.738210 435.090256 483.789773 435.898974 484.825897 436.707692 485.846651 437.516410 486.852102 438.325128 487.842318 439.133846 488.817368 439.942564 489.777319 440.751282 490.722240 441.560000 491.652198 442.368718 492.567261 443.177436 493.467498 443.986154 494.352977 444.794872 495.223765 445.603590 496.079930 446.412308 496.921541 447.221026 497.748665 448.029744 498.561371 448.838462 499.359727 449.647179 500.143799 450.455897 500.913658 451.264615 501.669370 452.073333 502.411004 452.882051 503.138627 453.690769 503.852308 454.499487 504.552114 455.308205 505.238114 456.116923 505.910376 456.925641 506.568967 457.734359 507.213956 458.543077 507.845411 459.351795 508.463399 460.160513 509.067990 460.969231 509.659249 461.777949 510.237247 462.586667 510.802050 463.395385 511.353727 464.204103 511.892346 465.012821 512.417974 465.821538 512.930680 466.630256 513.430532 467.438974 513.917598 468.247692 514.391946 469.056410 514.853643 469.865128 515.302759 470.673846 515.739360 471.482564 516.163515 472.291282 516.575292 473.100000 516.974758 473.908718 517.361983 474.717436 517.737034 475.526154 518.099978 476.334872 518.450884 477.143590 518.789821 477.952308 519.116855 478.761026 519.432055 479.569744 519.735490 480.378462 520.027226 481.187179 520.307332 481.995897 520.575876 482.804615 520.832926 483.613333 521.078551 484.422051 521.312817 485.230769 521.535793 486.039487 521.747548 486.848205 521.948148 487.656923 522.137663 488.465641 522.316160 489.274359 522.483707 490.083077 522.640372 490.891795 522.786223 491.700513 522.921328 492.509231 523.045755 493.317949 523.159573 494.126667 523.262849 494.935385 523.355651 495.744103 523.438047 496.552821 523.510105 497.361538 523.571894 498.170256 523.623481 498.978974 523.664934 499.787692 523.696321 500.596410 523.717711 501.405128 523.729171 502.213846 523.730769 503.022564 523.722574 503.831282 523.704653 504.640000 523.677074 505.448718 523.639906 506.257436 523.593216 507.066154 523.537072 507.874872 523.471543 508.683590 523.396696 509.492308 523.312599 510.301026 523.219321 511.109744 523.116930 511.918462 523.005492 512.727179 522.885078 513.535897 522.755753 514.344615 522.617588 515.153333 522.470648 515.962051 522.315004 516.770769 522.150721 517.579487 521.977870 518.388205 521.796516 519.196923 521.606730 520.005641 521.408578 520.814359 521.202128 521.623077 520.987449 522.431795 520.764609 523.240513 520.533675 524.049231 520.294716 524.857949 520.047799 525.666667 519.792993 526.475385 519.530366 527.284103 519.259986 528.092821 518.981920 528.901538 518.696237 529.710256 518.403004 530.518974 518.102290 531.327692 517.794163 532.136410 517.478691 532.945128 517.155942 533.753846 516.825983 534.562564 516.488883 535.371282 516.144710 536.180000 515.793531 536.988718 515.435415 537.797436 515.070431 538.606154 514.698645 539.414872 514.320125 540.223590 513.934941 541.032308 513.543160 541.841026 513.144849 542.649744 512.740078 543.458462 512.328913 544.267179 511.911423 545.075897 511.487676 545.884615 511.057740 546.693333 510.621683 547.502051 510.179573 548.310769 509.731478 549.119487 509.277466 549.928205 508.817604 550.736923 508.351962 551.545641 507.880607 552.354359 507.403607 553.163077 506.921030 553.971795 506.432944 554.780513 505.939417 555.589231 505.440517 556.397949 504.936312 557.206667 504.426871 558.015385 503.912260 558.824103 503.392549 559.632821 502.867804 560.441538 502.338095 561.250256 501.803489 562.058974 501.264054 562.867692 500.719859 563.676410 500.170970 564.485128 499.617457 565.293846 499.059387 566.102564 498.496828 566.911282 497.929848 567.720000 497.358516 568.528718 496.782899 569.337436 496.203065 570.146154 495.619083 570.954872 495.031019 571.763590 494.438944 572.572308 493.842923 573.381026 493.243026 574.189744 492.639320 574.998462 492.031873 575.807179 491.420754 576.615897 490.806030 577.424615 490.187770 578.233333 489.566041 579.042051 488.940911 579.850769 488.312449 580.659487 487.680722 581.468205 487.045799 582.276923 486.407747 583.085641 485.766635 583.894359 485.122530 584.703077 484.475501 585.511795 483.825615 586.320513 483.172941 587.129231 482.517546 587.937949 481.859498 588.746667 481.198867 589.555385 480.535719 590.364103 479.870122 591.172821 479.202145 591.981538 478.531856 592.790256 477.859322 593.598974 477.184612 594.407692 476.507793 595.216410 475.828934 596.025128 475.148103 596.833846 474.465368 597.642564 473.780796 598.451282 473.094456 599.260000 472.406415 600.068718 471.716743 600.877436 471.025506 601.686154 470.332772 602.494872 469.638611 603.303590 468.943089 604.112308 468.246275 604.921026 467.548237 605.729744 466.849043 606.538462 466.148760 607.347179 465.447458 608.155897 464.745203 608.964615 464.042064 609.773333 463.338109 610.582051 462.633405 611.390769 461.928022 612.199487 461.222026 613.008205 460.515487 613.816923 459.808471 614.625641 459.101047 615.434359 458.393283 616.243077 457.685248 617.051795 456.977008 617.860513 456.268632 618.669231 455.560188" class="line reactive nofill"/></g></g><g class="titles"><text x="400.0" y="26" class="title plot_title">tagMac: 0x286dc0</text></g><g transform="translate(149, 46)" class="plot overlay"><g class="series serie-0 color-0"><g class="dots"><circle cx="12.13076923076923" cy="455.56018787030087" r="2.5" class="dot reactive tooltip-trigger"/><desc class="value">-75</desc><desc class="x top">12.13076923076923</desc><desc class="y top">455.56018787030087</desc></g><g class="dots"><circle cx="214.3102564102564" cy="12.775643500446677" r="2.5" class="dot reactive tooltip-trigger"/><desc class="value">-74</desc><desc class="x ">214.3102564102564</desc><desc class="y ">12.775643500446677</desc></g><g class="dots"><circle cx="416.4897435897435" cy="455.56018787030087" r="2.5" class="dot reactive tooltip-trigger"/><desc class="value">-75</desc><desc class="x left top">416.4897435897435</desc><desc class="y left top">455.56018787030087</desc></g><g class="dots"><circle cx="618.6692307692307" cy="455.56018787030087" r="2.5" class="dot reactive tooltip-trigger"/><desc class="value">-75</desc><desc class="x left top">618.6692307692307</desc><desc class="y left top">455.56018787030087</desc></g></g></g><g transform="translate(149, 46)" class="plot text-overlay"><g class="series serie-0 color-0"/></g><g transform="translate(149, 46)" class="plot tooltip-overlay"><g transform="translate(0 0)" style="opacity: 0" class="tooltip"><rect rx="0" ry="0" width="0" height="0" class="tooltip-box"/><g class="text"/></g></g><g transform="translate(10, 56)" class="legends"><g id="activate-serie-0" class="legend reactive activate-serie"><rect x="0.0" y="1.0" width="12" height="12" class="color-0 reactive"/><text x="17.0" y="11.2">6f770b36</text></g></g><g transform="translate(790, 56)" class="legends"/></g></svg>